<?xml version="1.0" encoding="utf-8"?>
<!-- Generator: Adobe Illustrator 21.0.2, SVG Export Plug-In . SVG Version: 6.00 Build 0)  -->
<svg version="1.1" id="Layer_1" xmlns="http://www.w3.org/2000/svg" xmlns:xlink="http://www.w3.org/1999/xlink" x="0px" y="0px"
	 viewBox="0 0 504 576" style="enable-background:new 0 0 504 576;" xml:space="preserve">
<style type="text/css">
	.st0{fill:#FCDC00;stroke:#F4A82F;stroke-miterlimit:10;}
	.st1{fill:none;}
	.st2{fill:#75CEDC;}
	.st3{fill:#75CEDC;stroke:#1FBFD5;stroke-miterlimit:10;}
</style>
<g>
	<g>
		<g>
			<path class="st0" d="M213.2,228.9c-1.2,0.2-2.2-0.5-2.2-1.7l-0.1,0l0.1,0c-0.1-0.1,0-2.9-1.6-5.3c-2-3.1-5.6-4.3-10.8-3.5
				c-10.2,1.7-12.5,8.1-12.6,13c-0.1,4.4,1.5,9.6,9.4,9.2c1.2,0,2,0.9,1.8,2.1c-0.2,1.1-1.1,2.1-2.2,2.2c-0.1,0-0.2,0-0.3,0
				c-3.1,0.2-5.6-0.2-7.6-1.4c-1.8-1-3.1-2.3-4-4.1c-1.7-2.9-1.6-6.1-1.6-7.3c0-0.5,0-1.7,0.3-3.3c0.4-1.9,1-3.8,2-5.5
				c1.3-2.2,3.1-4.1,5.4-5.7c2.5-1.6,5.8-2.9,9.5-3.6c8.6-1.5,12.7,1.9,14.7,5c1.9,3.1,2.1,6.4,2,7.1l0,0.1
				C215.4,227.6,214.4,228.7,213.2,228.9z M215,253.2c0,1.3-0.1,4.9-2.2,8.6c-1.4,2.2-3.2,4-5.5,5.5c-2.4,1.5-5.7,2.8-9.4,3.4
				c-8.7,1.5-12.8-1.8-14.7-4.7c-2-3.2-2-6.8-2-7c0-1.2,1-2.4,2.3-2.6c1.2-0.2,2.2,0.7,2.2,1.9c0,0.1,0,2.7,1.5,5
				c2,3.1,5.6,4.1,10.8,3.2c8.4-1.4,12.5-5.6,12.6-12.4c0.1-6.4-2.7-9.7-8.5-9.8c-1.2,0-2-1-1.7-2.3c0.3-1.2,1.3-2.1,2.7-2.1
				c2.7,0,5.1,0.6,6.9,1.9c1.6,0.9,2.9,2.3,3.7,4.1C215,248.9,215,252,215,253.2z"/>
			<path class="st0" d="M227.3,256.9l0.8-45.4c0-1.2,1-2.3,2.3-2.6s2.2,0.6,2.1,1.8l-0.8,45.4c0,1.2-1,2.3-2.2,2.5
				C228.3,258.8,227.3,258.1,227.3,256.9z M229.4,265.1c-1.2,0.2-2.2-0.6-2.2-1.8c0-1.2,1-2.3,2.3-2.5l29.4-5
				c1.2-0.2,2.2,0.5,2.2,1.7c0,1.2-1.1,2.4-2.3,2.6L229.4,265.1z"/>
			<path class="st0" d="M279.9,250.2c-3.9-3.9-5.7-10.7-5.5-20.7c0.1-5.1,0.6-9.3,1.5-13c0.9-3.8,2.3-7,4.3-9.6
				c2-2.7,4.4-4.7,7.4-6.3c2.7-1.5,6-2.5,9.8-3.2c3.8-0.6,7.1-0.7,9.8,0.1c2.9,0.6,5.3,2.1,7.2,4.1c3.4,4,5,10.6,4.8,20.2
				c-0.1,4.6-0.6,8.8-1.5,12.5c-1,3.6-2.5,6.9-4.6,9.7c-3.8,5.4-9.4,8.7-16.7,9.9C288.8,255.2,283.5,254,279.9,250.2z M283.6,208.9
				c-3,4.2-4.6,10.7-4.8,19.8c-0.2,9,1.4,14.8,4.4,18.2c2.7,2.9,7.1,3.7,13.2,2.7c6-1,10.3-3.6,13.4-7.8c3.1-4.5,4.8-11,5-19.2
				c0.2-8.5-1.1-14.3-3.9-17.7c-2.8-3.3-7.2-4.3-13.5-3.2C290.7,202.8,286.3,205.1,283.6,208.9z"/>
			<path class="st0" d="M182.2,339.4l0.4-23.7l-32.4,5.5c-1.2,0.2-2.2-0.6-2.1-1.8l0.4-26c0-1.2,1-2.3,2.2-2.5
				c1.2-0.2,2.2,0.6,2.2,1.8l-0.4,23.8L185,311c1.2-0.2,2.2,0.6,2.1,1.8l-0.4,25.8c0,1.2-1,2.3-2.2,2.5
				C183.2,341.4,182.2,340.6,182.2,339.4z M147.7,345.3l0.3-17.2c0-1.1,1-2.3,2.2-2.5c1.2-0.2,2.2,0.6,2.2,1.7l-0.3,17.2
				c0,1.2-1,2.3-2.3,2.6C148.7,347.3,147.7,346.5,147.7,345.3z M182.8,304.8l0.3-17.2c0-1.2,1-2.3,2.3-2.6c1.2-0.2,2.2,0.6,2.1,1.8
				l-0.3,17.2c0,1.1-1,2.3-2.2,2.5C183.8,306.7,182.8,305.9,182.8,304.8z"/>
			<path class="st0" d="M239.7,331.6c-1.1,0.6-2.4,0.3-2.8-0.6l-19.1-43.7l-20.9,50.5c-0.5,0.8-1.3,1.5-2.1,1.6
				c-0.3,0.1-0.5,0.1-0.8,0c-1.2-0.3-1.7-1.4-1.2-2.6l23.1-55.7c0.3-0.8,1.2-1.5,2-1.6c0.9-0.2,1.7,0.2,2,0.9l21.1,48.1
				C241.5,329.6,240.9,331,239.7,331.6z M227.3,316.6c0-1.2-1-2-2.2-1.8l-15.8,2.7c-1.2,0.2-2.3,1.4-2.3,2.6c0,1.2,1,2,2.2,1.8
				l15.8-2.7C226.3,319,227.3,317.8,227.3,316.6z"/>
			<path class="st0" d="M283.4,287.4c0,0,0-1.6-0.5-3.7c-0.6-2.7-2-4.9-3.8-6.3c-3-2.5-7.3-3.2-12.9-2.2
				c-16.3,2.8-17.9,15.4-18.1,27c-0.1,4-0.2,10.3,2,15.1c2.5,5.3,7.5,7.2,15.2,5.9c7.4-1.3,12.6-4.7,15.5-10.2
				c2.2-4.3,2.3-8.1,2.3-8.2c0-1.2,1.1-2.3,2.4-2.5c1.2-0.2,2.2,0.5,2.1,1.7c0,0.2-0.1,5-2.9,10.3c-2.6,4.9-8.1,11.2-19.5,13.2
				c-5,0.9-9.3,0.5-12.6-1c-2.8-1.5-5-3.7-6.7-6.8c-2.6-5.5-2.5-12.5-2.4-16.8c0.1-4.6,0.2-11.4,2.9-17.7c1.7-3.7,4.1-6.7,7-9.2
				c3.4-2.7,7.6-4.4,12.8-5.3c6.9-1.2,12.4-0.2,16.2,2.9c5.6,4.7,5.5,12.2,5.5,12.8c0,0.1,0,0.1,0,0.1c0,1.2-1,2.3-2.2,2.5
				C284.5,289.4,283.4,288.7,283.4,287.4z"/>
			<path class="st0" d="M296.3,289.1l0.4-20.9c0-1.1,1-2.3,2.3-2.6c1.2-0.2,2.1,0.7,2.1,1.8l-0.4,20.9c0,1.2-1,2.3-2.2,2.5
				C297.3,291.1,296.3,290.3,296.3,289.1z M333,315.5c-0.4,0.4-0.9,0.5-1.3,0.6c-0.7,0.1-1.3,0-1.7-0.5l-21.7-24.1l-7.7,9.7
				l-0.3,18.1c0,1.1-1,2.3-2.2,2.5c-1.2,0.2-2.2-0.6-2.2-1.7l0.3-18.9c0-0.4,0.3-1,0.6-1.4l30-38c0.9-1.1,2.3-1.5,3.2-0.8
				c0.9,0.7,1,2,0.2,3l-18.9,23.8l22.3,24.6C334.2,313.2,334,314.6,333,315.5z"/>
			<path class="st0" d="M370.3,270.5c-1.2,0.2-2.2-0.5-2.2-1.7l-0.1,0l0.1,0c-0.1-0.1,0-2.9-1.6-5.3c-2-3.1-5.6-4.3-10.8-3.5
				c-10.2,1.7-12.5,8.1-12.6,13c-0.1,4.4,1.4,9.6,9.4,9.2c1.2,0,2,0.9,1.8,2.1c-0.2,1.1-1.1,2.1-2.2,2.2c-0.1,0-0.2,0-0.3,0
				c-3.1,0.2-5.6-0.2-7.6-1.4c-1.8-1-3.1-2.3-4-4.1c-1.6-2.9-1.6-6.1-1.6-7.3c0-0.5,0-1.7,0.3-3.3c0.4-1.9,1-3.8,2-5.5
				c1.3-2.2,3.1-4.1,5.4-5.7c2.5-1.6,5.8-2.9,9.5-3.6c8.6-1.5,12.7,1.9,14.7,5c1.9,3.1,2,6.4,2,7.1l0,0.1
				C372.5,269.2,371.5,270.4,370.3,270.5z M372,294.9c0,1.3-0.1,4.9-2.2,8.6c-1.4,2.2-3.2,4-5.5,5.5c-2.4,1.5-5.7,2.8-9.4,3.4
				c-8.7,1.5-12.8-1.8-14.7-4.7c-2-3.2-2-6.8-2-7c0-1.2,1-2.4,2.3-2.6c1.2-0.2,2.2,0.7,2.2,1.9c0,0.1-0.1,2.7,1.5,5
				c2,3.1,5.6,4.1,10.8,3.2c8.4-1.4,12.5-5.6,12.6-12.4c0.1-6.4-2.7-9.7-8.5-9.8c-1.2,0-2-1-1.7-2.3c0.3-1.2,1.4-2.1,2.7-2.1
				c2.7,0,5.1,0.6,6.9,1.9c1.6,0.9,2.9,2.3,3.7,4.1C372.1,290.5,372.1,293.7,372,294.9z"/>
		</g>
	</g>
	<g>
		
			<image style="overflow:visible;enable-background:new    ;" width="1246" height="933" xlink:href="DC00343A.png"  transform="matrix(0.2392 0 0 0.2397 111.6 160.32)">
		</image>
	</g>
</g>
<path class="st1" d="M321.7,129.4c-22.5-16.6-50.8-22.8-77.4-18.4l-0.9,0.2c-25.1,4.4-48.7,18.5-64.5,39.6
	c-15.8,21-24,49.2-18.6,81.8l0.2,1.2c2.4,13.8,9.9,26.8,19.5,40.2l0,0l178.2-31.4c4.5-15.9,7-30.6,4.6-44.5
	C357.4,167.2,341.8,144.2,321.7,129.4z"/>
<path class="st1" d="M334.5,376c-2.6-19.6-1.5-37.7,1.4-54.7l-108.1,19.1c8.6,15,15.8,31.7,20,50.9L334.5,376z"/>
<g>
	<g>
		<path class="st2" d="M234.8,436.1c-3.8,0.7-7.5-1.8-8.2-5.7c-0.7-3.8,1.9-7.5,5.7-8.2l91.4-16.1c3.8-0.7,7.5,1.9,8.2,5.7
			c0.7,3.9-1.9,7.5-5.7,8.2L234.8,436.1z"/>
		<path class="st2" d="M247.7,459.5c-3.9,0.7-7.5-1.9-8.2-5.7c-0.7-3.8,1.8-7.5,5.7-8.2l74.5-13.1c3.9-0.7,7.5,1.9,8.2,5.7
			c0.7,3.8-1.8,7.5-5.7,8.2L247.7,459.5z"/>
		<g>
			<path class="st1" d="M304.2,135c-22.5-16.6-50.8-22.8-77.4-18.4l-0.9,0.2c-25.1,4.4-48.7,18.5-64.5,39.6
				c-15.8,21-24,49.2-18.6,81.8l0.2,1.2c2.4,13.8,9.9,26.8,19.5,40.2l0,0l178.2-31.4c4.5-15.9,7-30.6,4.6-44.5
				C339.9,172.8,324.3,149.8,304.2,135z"/>
			<path class="st1" d="M317,381.6c-2.6-19.6-1.5-37.7,1.4-54.7l-108.1,19.1c8.6,15,15.8,31.7,20,50.9L317,381.6z"/>
			<path class="st3" d="M323.6,406.1l-91,16c-3.4,0.6-6,3.4-6,6.8c0,4.6,4,7.8,8.3,7.1l91.4-16.1c4-0.7,6.7-4.6,5.6-8.7
				C330.9,407.6,327.2,405.5,323.6,406.1z"/>
			<path class="st3" d="M319.8,432.5l-74.5,13.1c-3.9,0.7-6.4,4.4-5.7,8.2c0.7,3.8,4.3,6.4,8.2,5.7l74.5-13.1
				c3.9-0.7,6.4-4.4,5.7-8.2C327.3,434.4,323.6,431.8,319.8,432.5z"/>
			<path class="st3" d="M317,381.6l-86.6,15.3c-3.8-17.6-10.2-32.9-17.8-46.9c-1.3-2.4-4-3.7-6.7-3.3l-0.2,0
				c-4.9,0.9-7.5,6.2-5.2,10.5c7.5,14.4,14.4,31.6,17.4,48.9c0.7,3.8,4.3,6.3,8.2,5.6l100.2-17.7c3.9-0.7,6.4-4.3,5.7-8.1
				c-3.2-18.4-2.8-35.6-0.5-51.8c0.7-4.9-3.6-9.1-8.5-8.3l-0.1,0c-2.7,0.5-4.8,2.6-5.2,5.4C315.3,347.1,314.6,363.7,317,381.6z"/>
			<path class="st3" d="M143,239.4l-0.2-1.2c-5.4-32.6,2.8-60.8,18.6-81.8c15.9-21.1,39.4-35.2,64.5-39.6l0.9-0.2
				c26.6-4.4,54.9,1.8,77.4,18.4c20.2,14.8,35.7,37.8,41.2,68.7c1.9,10.6,0.8,21.9-1.9,33.7c-1.1,5.1,3.2,9.7,8.4,8.8l0,0
				c2.5-0.4,4.4-2.4,4.9-4.9c1.5-8.7,4.4-28.9,2.4-40c-6.1-34.8-23.8-60.8-46.7-77.6c-25.6-18.8-57.9-25.9-88-20.9l-0.4,0.1
				c-0.2-0.1-0.4,0-0.7,0c-28.6,5-55.3,21-73.2,45c-18,24-27.4,55.8-21.3,92.7l0.2,1.3c2.3,13.1,8.1,25.1,15.8,36.9
				c1.4,2.2,4,3.3,6.5,2.8l0.6-0.1c5-0.9,7.6-6.5,5-10.9C151.8,261.7,144.5,248.1,143,239.4z"/>
		</g>
	</g>
	<g>
		
			<image style="overflow:visible;enable-background:new    ;" width="1279" height="1808" xlink:href="DC00343E.png"  transform="matrix(0.24 0 0 0.2395 90 64.08)">
		</image>
	</g>
</g>
</svg>
